# xmcd
#
# Track frame offsets:
#	150
#	20319
#	46889
#	80568
#	121525
#	139845
#	143705
#	171596
#	189402
#
# Disc length: 2745 seconds
#
# Revision: 1
# Processed by: cddbd v1.5.2PL0 Copyright (c) Steve Scherf et al.
# Submitted via: audiograbber 1.83.01
#
DISCID=720ab709
DTITLE=Eagles - Take It Easy - Live In The USA CD03
DYEAR=1900
DGENRE=Rock
TTITLE0=Funk #49
TTITLE1=Good Day In Hell
TTITLE2=Rocky Mountain Way
TTITLE3=Witchy Woman
TTITLE4=James Dean
TTITLE5=Band Introductions
TTITLE6=The Best Of My Love
TTITLE7=Walk Away
TTITLE8=Tequila Sunrise
EXTD=
EXTT0=
EXTT1=
EXTT2=
EXTT3=
EXTT4=
EXTT5=
EXTT6=
EXTT7=
EXTT8=
PLAYORDER=
